<svg width="129" height="235" viewBox="0 0 129 235" fill="none" xmlns="http://www.w3.org/2000/svg">
<g clip-path="url(#clip0_5_113)">
<path opacity="0.2" d="M235 117.5C235 182.393 182.393 235 117.5 235C52.6065 235 0 182.393 0 117.5C0 52.6065 52.6065 0 117.5 0C182.393 0 235 52.6065 235 117.5ZM21.9043 117.5C21.9043 170.296 64.704 213.096 117.5 213.096C170.296 213.096 213.096 170.296 213.096 117.5C213.096 64.704 170.296 21.9043 117.5 21.9043C64.704 21.9043 21.9043 64.704 21.9043 117.5Z" fill="#D9D9D9"/>
<g opacity="0.5" filter="url(#filter0_d_5_113)">
<ellipse cx="128.5" cy="117.5" rx="87.5" ry="81.5" fill="#D9D9D9"/>
</g>
</g>
<defs>
<filter id="filter0_d_5_113" x="37" y="36" width="183" height="171" filterUnits="userSpaceOnUse" color-interpolation-filters="sRGB">
<feFlood flood-opacity="0" result="BackgroundImageFix"/>
<feColorMatrix in="SourceAlpha" type="matrix" values="0 0 0 0 0 0 0 0 0 0 0 0 0 0 0 0 0 0 127 0" result="hardAlpha"/>
<feOffset dy="4"/>
<feGaussianBlur stdDeviation="2"/>
<feComposite in2="hardAlpha" operator="out"/>
<feColorMatrix type="matrix" values="0 0 0 0 0 0 0 0 0 0 0 0 0 0 0 0 0 0 0.25 0"/>
<feBlend mode="normal" in2="BackgroundImageFix" result="effect1_dropShadow_5_113"/>
<feBlend mode="normal" in="SourceGraphic" in2="effect1_dropShadow_5_113" result="shape"/>
</filter>
<clipPath id="clip0_5_113">
<rect width="129" height="235" fill="white"/>
</clipPath>
</defs>
</svg>
